<svg xmlns="http://www.w3.org/2000/svg" data-name="Layer 1" viewBox="0 0 512 512"><path fill="#ffc166" d="M504.5,139.3999V330.13a177.01781,177.01781,0,0,1-70.06006,141.32,111.26076,111.26076,0,0,1-134.33008,0A177.47549,177.47549,0,0,1,230.06006,330.13V121.59a251.35074,251.35074,0,0,0,66.87988,31.12A246.30717,246.30717,0,0,0,365.5,162.96a250.16229,250.16229,0,0,0,124.12012-32.28A9.98854,9.98854,0,0,1,504.5,139.3999Z"/><path fill="#ffb74e" d="M266.93994 152.71A246.30717 246.30717 0 0 0 335.5 162.96c5.71436.04065 11.28809-.12671 16.72949-.45825A246.88543 246.88543 0 0 1 296.93994 152.71a251.35074 251.35074 0 0 1-66.87988-31.12v16.94226A253.22446 253.22446 0 0 0 266.93994 152.71zM489.62012 130.67993c-4.45508 2.5072-9.53125 5.17786-15.17725 7.8678.02295.28259.05713.56116.05713.85217V330.13a177.01781 177.01781 0 0 1-70.06006 141.32 111.32585 111.32585 0 0 1-52.165 21.52319 111.242 111.242 0 0 0 82.165-21.52319A177.01781 177.01781 0 0 0 504.5 330.13V139.3999A9.98854 9.98854 0 0 0 489.62012 130.67993z"/><path fill="#fbfbfb" d="M433.5,401.98937c-3.15479-35.00483-32.66723-61.88667-67.03118-61.46463-33.76794.41479-62.31634,27.07237-65.41113,61.46463a138.608,138.608,0,0,1,132.44231,0Z"/><path fill="#f2f2f2" d="M401.147,389.37036a139.6253,139.6253,0,0,1,32.353,12.619c-3.15479-35.00488-32.667-61.88672-67.03125-61.46472a64.60453,64.60453,0,0,0-14.17773,1.76855A67.60107,67.60107,0,0,1,401.147,389.37036Z"/><path fill="#fbfbfb" d="M428.8064,231.22881a38.84393,38.84393,0,0,0-34.73263,21.6399,38.693,38.693,0,0,0,69.46469,0A38.8437,38.8437,0,0,0,428.8064,231.22881Z"/><path fill="#f2f2f2" d="M428.80664,231.22876a38.55793,38.55793,0,0,0-7.50049.75232,39.00337,39.00337,0,0,1,27.23242,20.88757,39.0037,39.0037,0,0,1-27.23242,20.88758,38.56388,38.56388,0,0,0,42.23242-20.88758A38.8441,38.8441,0,0,0,428.80664,231.22876Z"/><path fill="#fbfbfb" d="M305.75186,231.22881a38.84392,38.84392,0,0,0-34.73263,21.6399,38.693,38.693,0,0,0,69.46469,0A38.84372,38.84372,0,0,0,305.75186,231.22881Z"/><path fill="#fbfbfb" d="M296.83984,232.27a177.1365,177.1365,0,0,1-5.6997,39.36A39.24761,39.24761,0,0,1,271.02,252.87,39.00451,39.00451,0,0,1,296.83984,232.27Z"/><path fill="#f2f2f2" d="M305.752,231.22876a38.55291,38.55291,0,0,0-7.5.75232,39.00353,39.00353,0,0,1,27.23194,20.88757A39.00386,39.00386,0,0,1,298.252,273.75623a38.56321,38.56321,0,0,0,42.23194-20.88758A38.84357,38.84357,0,0,0,305.752,231.22876Z"/><path fill="#ffb74e" d="M296.93994,152.71V226.53c0,1.91992-.02978,3.83-.1001,5.74a177.3464,177.3464,0,0,1-63.73,130.66992,177.15209,177.15209,0,0,1-3.0498-32.80994V121.59A251.35074,251.35074,0,0,0,296.93994,152.71Z"/><path fill="#f2f2f2" d="M296.83984,232.27a177.1365,177.1365,0,0,1-5.6997,39.36A39.24761,39.24761,0,0,1,271.02,252.87,39.00451,39.00451,0,0,1,296.83984,232.27Z"/><path fill="#ff8e66" d="M211.88634,367.85542a111.26557,111.26557,0,0,1-134.33038,0A177.02831,177.02831,0,0,1,7.5,226.53471V35.80824a9.99767,9.99767,0,0,1,14.91338-8.7074,249.96192,249.96192,0,0,0,120.531,32.26409A250.09521,250.09521,0,0,0,267.061,27.07936a9.99373,9.99373,0,0,1,14.88129,8.72629V226.53471A177.02734,177.02734,0,0,1,211.88634,367.85542Z"/><path fill="#ff7c4e" d="M267.061,27.07935c-4.45459,2.50744-9.53077,5.17858-15.17627,7.869.02343.28418.05761.56458.05761.8573v190.729a177.02714,177.02714,0,0,1-70.05615,141.3208,111.33308,111.33308,0,0,1-52.165,21.52209,111.24721,111.24721,0,0,0,82.165-21.52209,177.02714,177.02714,0,0,0,70.05615-141.3208V35.80566A9.99371,9.99371,0,0,0,267.061,27.07935Z"/><path fill="#fbfbfb" d="M210.94231,236.92321c-3.15479,35.00483-32.66723,61.88667-67.03119,61.46463-33.76793-.41479-62.31634-27.07237-65.41112-61.46463a138.608,138.608,0,0,0,132.44231,0Z"/><path fill="#f2f2f2" d="M178.58936,249.54224a67.60188,67.60188,0,0,1-48.856,47.07714,64.60808,64.60808,0,0,0,14.17773,1.76844c34.364.422,63.87647-26.45984,67.03125-61.4646A139.6346,139.6346,0,0,1,178.58936,249.54224Z"/><path fill="#fbfbfb" d="M206.24871,127.63219a38.84393,38.84393,0,0,0-34.73263,21.6399,38.693,38.693,0,0,0,69.46469,0A38.8437,38.8437,0,0,0,206.24871,127.63219Z"/><path fill="#f2f2f2" d="M206.24854,127.63208a38.55667,38.55667,0,0,0-7.5.75232A39.00386,39.00386,0,0,1,225.981,149.27209a39.00325,39.00325,0,0,1-27.23242,20.88746A38.56387,38.56387,0,0,0,240.981,149.27209,38.84475,38.84475,0,0,0,206.24854,127.63208Z"/><path fill="#fbfbfb" d="M83.19417,127.63219a38.84392,38.84392,0,0,0-34.73263,21.6399,38.693,38.693,0,0,0,69.46469,0A38.84372,38.84372,0,0,0,83.19417,127.63219Z"/><path fill="#f2f2f2" d="M83.19409,127.63208a38.55487,38.55487,0,0,0-7.5.75232,39.00343,39.00343,0,0,1,27.23218,20.88769,39.00281,39.00281,0,0,1-27.23218,20.88746,38.56354,38.56354,0,0,0,42.23218-20.88746A38.84382,38.84382,0,0,0,83.19409,127.63208Z"/><path fill="#272a33" d="M124.63574,152.62207a7.49585,7.49585,0,0,0,0-6.70019,46.19179,46.19179,0,0,0-82.88379,0,7.49585,7.49585,0,0,0,0,6.70019,46.1918,46.1918,0,0,0,82.88379,0ZM57.09961,149.272a31.14784,31.14784,0,0,1,52.18848,0,31.14784,31.14784,0,0,1-52.18848,0ZM206.249,120.13232a46.14793,46.14793,0,0,0-41.44336,25.78907,7.49793,7.49793,0,0,0,0,6.70117,46.19278,46.19278,0,0,0,82.88477-.00049,7.49585,7.49585,0,0,0,0-6.70019A46.14245,46.14245,0,0,0,206.249,120.13232Zm0,43.2793A31.12434,31.12434,0,0,1,180.1543,149.272a31.14783,31.14783,0,0,1,52.18847,0A31.12383,31.12383,0,0,1,206.249,163.41162Zm8.81446,67.24512a7.50271,7.50271,0,0,0-7.69922-.32471,131.81882,131.81882,0,0,1-62.64453,15.93311h-.23731A131.86222,131.86222,0,0,1,82.07812,230.332a7.50008,7.50008,0,0,0-11.04785,7.26367,75.37563,75.37563,0,0,0,23.542,48.272,73.2387,73.2387,0,0,0,49.24707,20.01953c.29882.00341.59179.00537.89062.00537,37.94629,0,70.23535-29.834,73.70215-68.2959A7.50124,7.50124,0,0,0,215.06348,230.65674Zm-71.06055,60.23144c-25.06738-.30761-47.07715-17.31787-55.07227-40.71679a146.36772,146.36772,0,0,0,55.52442,11.09375h.26465a146.34671,146.34671,0,0,0,55.82226-11.106C192.43555,274.14453,169.83984,291.20752,144.00293,290.88818ZM503.32715,124.28564a17.30334,17.30334,0,0,0-17.38672-.1455,242.62249,242.62249,0,0,1-120.38477,31.32129,239.39752,239.39752,0,0,1-76.11328-13.02173V35.80566A17.49372,17.49372,0,0,0,263.38184,20.544,242.86254,242.86254,0,0,1,144.71191,51.87109c-.56836,0-1.14355-.002-1.71386-.00634A242.912,242.912,0,0,1,26.09277,20.56592,17.49694,17.49694,0,0,0,0,35.80811V226.53467C0,284.24609,27.30371,339.314,73.03711,373.84131a118.76524,118.76524,0,0,0,143.36816,0c3.3208-2.50708,6.53223-5.13452,9.65479-7.85132a184.9598,184.9598,0,0,0,69.53467,111.448,118.76524,118.76524,0,0,0,143.36816,0C484.69629,442.91064,512,387.84277,512,330.13135v-190.729A17.34523,17.34523,0,0,0,503.32715,124.28564ZM288.60107,243.93018A30.80522,30.80522,0,0,1,305.752,238.729a31.12692,31.12692,0,0,1,26.09473,14.13965,31.09028,31.09028,0,0,1-45.52539,7.29444Q287.81543,252.12292,288.60107,243.93018ZM207.36816,361.86963a103.76688,103.76688,0,0,1-125.29394,0C40.07422,330.16113,15,279.56836,15,226.53467V35.80811a2.4153,2.4153,0,0,1,1.2334-2.15577,2.53427,2.53427,0,0,1,1.26758-.355,2.4817,2.4817,0,0,1,1.23242.33936,257.95968,257.95968,0,0,0,124.15722,33.228c.60938.00439,1.21485.00634,1.82227.00634A257.91592,257.91592,0,0,0,270.73926,33.61523a2.39352,2.39352,0,0,1,2.459.02344,2.43137,2.43137,0,0,1,1.24414,2.167v190.729C274.44238,279.56836,249.36816,330.16113,207.36816,361.86963ZM497,330.13135c0,53.03369-25.07422,103.62646-67.07422,135.335a103.76688,103.76688,0,0,1-125.29394,0,169.95,169.95,0,0,1-65.47608-112.07495,185.84342,185.84342,0,0,0,43.54688-77.56958,46.14419,46.14419,0,0,0,64.4917-19.60254,7.49793,7.49793,0,0,0,0-6.70117,46.177,46.177,0,0,0-57.7544-22.80823c0-.05847.00244-.1167.00244-.17517V158.24048a254.12906,254.12906,0,0,0,76.00586,12.221c.60938.00439,1.21485.00634,1.82227.00634a257.9146,257.9146,0,0,0,126.02734-33.25634,2.40016,2.40016,0,0,1,2.458.02343A2.4323,2.4323,0,0,1,497,139.40234ZM428.80664,223.729a46.1428,46.1428,0,0,0-41.44238,25.78955,7.49587,7.49587,0,0,0,0,6.7002,46.1918,46.1918,0,0,0,82.88379,0,7.49587,7.49587,0,0,0,0-6.7002A46.14246,46.14246,0,0,0,428.80664,223.729Zm0,43.2793a31.12554,31.12554,0,0,1-26.09473-14.13965,31.14784,31.14784,0,0,1,52.18848,0A31.12383,31.12383,0,0,1,428.80664,267.0083ZM367.26758,333.02q-.44532,0-.89063.00537a73.23871,73.23871,0,0,0-49.24707,20.01953,75.37567,75.37567,0,0,0-23.542,48.272,7.49977,7.49977,0,0,0,11.04785,7.26368A131.85406,131.85406,0,0,1,367.04,392.64746h.2373a131.83118,131.83118,0,0,1,62.64454,15.93311,7.49969,7.49969,0,0,0,11.04785-7.26465C437.50391,362.85156,405.21777,333.02,367.26758,333.02Zm.00976,44.62744h-.26464a146.36772,146.36772,0,0,0-55.52442,11.09375c7.99512-23.39892,30.00488-40.40918,55.07227-40.7168,25.81054-.352,48.43261,16.74268,56.53906,40.72852A146.33421,146.33421,0,0,0,367.27734,377.64746Z"/></svg>