<?xml version="1.0" standalone="no"?>
<!DOCTYPE svg PUBLIC "-//W3C//DTD SVG 20010904//EN"
 "http://www.w3.org/TR/2001/REC-SVG-20010904/DTD/svg10.dtd">
<svg version="1.0" xmlns="http://www.w3.org/2000/svg"
 width="225.000000pt" height="225.000000pt" viewBox="0 0 225.000000 225.000000"
 preserveAspectRatio="xMidYMid meet">

<g transform="translate(0.000000,225.000000) scale(0.100000,-0.100000)"
fill="#000000" stroke="none">
<path d="M1037 1956 c-138 -38 -227 -166 -227 -325 0 -64 -2 -72 -31 -101 -28
-27 -31 -36 -27 -75 7 -56 43 -114 79 -127 19 -6 32 -21 39 -42 6 -18 26 -52
46 -74 l35 -41 -49 -48 c-27 -26 -58 -61 -70 -76 -18 -25 -35 -31 -141 -53
-156 -31 -212 -53 -231 -90 -25 -48 -19 -249 13 -439 15 -88 31 -163 36 -168
12 -12 833 -20 1051 -10 l185 8 12 55 c50 219 65 486 32 555 -18 37 -69 57
-230 89 -106 22 -123 28 -142 53 -11 15 -43 50 -69 77 -26 27 -48 52 -48 56 0
4 7 14 16 21 9 7 29 37 46 65 19 34 39 56 57 62 36 13 72 71 79 127 4 39 1 48
-26 74 -27 28 -30 36 -34 118 -3 69 -10 100 -32 145 -30 64 -89 121 -152 149
-57 26 -156 33 -217 15z m158 -250 c45 -19 69 -66 62 -124 -4 -36 -14 -53 -52
-92 -29 -29 -50 -61 -54 -81 -5 -27 -12 -35 -32 -37 -66 -8 -62 74 7 148 46
49 58 93 28 104 -31 12 -71 6 -89 -14 -12 -13 -29 -20 -44 -18 -54 6 -29 92
34 118 32 14 103 11 140 -4z m-54 -386 c37 -20 18 -80 -26 -80 -43 0 -58 39
-28 72 19 21 27 22 54 8z m-111 -231 c30 -13 56 -24 58 -25 5 -3 -47 -102 -56
-108 -4 -2 -30 9 -56 26 l-48 32 7 45 c8 54 13 64 29 57 6 -2 36 -15 66 -27z
m284 -24 c9 -52 6 -57 -65 -99 l-28 -17 -31 53 c-33 59 -36 68 -17 68 6 0 35
11 62 24 28 14 55 23 60 22 6 -2 14 -24 19 -51z m-4 -192 c-14 -118 -32 -197
-71 -318 -31 -97 -49 -133 -49 -102 0 9 -9 119 -21 243 -20 217 -20 274 1 274
6 0 16 -11 22 -25 6 -14 14 -25 17 -25 3 0 29 13 56 28 28 16 51 27 53 26 2
-1 -2 -46 -8 -101z m-318 70 c30 -16 53 -23 55 -16 2 5 10 19 18 29 13 16 16
17 25 4 13 -20 13 -34 -10 -275 -11 -115 -20 -219 -20 -230 0 -33 -17 0 -50
101 -43 134 -94 414 -75 414 3 0 29 -12 57 -27z"/>
</g>
</svg>
